
<svg width="0" height="0" class="hidden">
  <symbol  xmlns="http://www.w3.org/2000/svg" viewBox="0 0 8 10" id="right">
    <path d="M6.89785 5.76335L2.51264 9.47392C1.86272 10.0238 0.866699 9.56189 0.866699 8.71053V1.28941C0.866699 0.438046 1.86272 -0.0239084 2.51264 0.526022L6.89785 4.23658C7.36992 4.63603 7.36992 5.3639 6.89785 5.76335Z" ></path>
  </symbol>
  <symbol id="arrowright" xmlns="http://www.w3.org/2000/svg" xmlns:xlink="http://www.w3.org/1999/xlink" x="0px" y="0px" xml:space="preserve" viewBox="0 0 284.935 284.936">
    <path d="M222.701,135.9L89.652,2.857C87.748,0.955,85.557,0,83.084,0c-2.474,0-4.664,0.955-6.567,2.857L62.244,17.133
	  c-1.906,1.903-2.855,4.089-2.855,6.567c0,2.478,0.949,4.664,2.855,6.567l112.204,112.204L62.244,254.677
		c-1.906,1.903-2.855,4.093-2.855,6.564c0,2.477,0.949,4.667,2.855,6.57l14.274,14.271c1.903,1.905,4.093,2.854,6.567,2.854
		c2.473,0,4.663-0.951,6.567-2.854l133.042-133.044c1.902-1.902,2.854-4.093,2.854-6.567S224.603,137.807,222.701,135.9z"></path>
  </symbol>
  <symbol id="arrowdown" xmlns="http://www.w3.org/2000/svg" xmlns:xlink="http://www.w3.org/1999/xlink" x="0px" y="0px" xml:space="preserve" viewBox="0 0 284.929 284.929">
    <path d="M282.082,76.511l-14.274-14.273c-1.902-1.906-4.093-2.856-6.57-2.856c-2.471,0-4.661,0.95-6.563,2.856L142.466,174.441
		L30.262,62.241c-1.903-1.906-4.093-2.856-6.567-2.856c-2.475,0-4.665,0.95-6.567,2.856L2.856,76.515C0.95,78.417,0,80.607,0,83.082
		c0,2.473,0.953,4.663,2.856,6.565l133.043,133.046c1.902,1.903,4.093,2.854,6.567,2.854s4.661-0.951,6.562-2.854L282.082,89.647
		c1.902-1.903,2.847-4.093,2.847-6.565C284.929,80.607,283.984,78.417,282.082,76.511z"></path>
  </symbol>
<symbol xmlns="http://www.w3.org/2000/svg" viewBox="0 0 18 19" id="questionplus">
    <path  d="M9.5 1V18" stroke-width="2" stroke-linecap="round"></path>
    <path d="M1 9.5L18 9.5"  stroke-width="2" stroke-linecap="round"></path>
  </symbol>
</svg>


